<mxfile host="app.diagrams.net" modified="2022-07-21T09:47:59.069Z" agent="5.0 (Macintosh; Intel Mac OS X 10_15_7) AppleWebKit/537.36 (KHTML, like Gecko) Chrome/103.0.0.0 Safari/537.36" etag="MzDSdRhM576rACkR_OxK" version="20.1.1" type="github">
  <diagram id="C5RBs43oDa-KdzZeNtuy" name="Page-1">
    <mxGraphModel dx="1234" dy="793" grid="1" gridSize="10" guides="1" tooltips="1" connect="1" arrows="1" fold="1" page="1" pageScale="1" pageWidth="827" pageHeight="1169" math="0" shadow="0">
      <root>
        <mxCell id="WIyWlLk6GJQsqaUBKTNV-0" />
        <mxCell id="WIyWlLk6GJQsqaUBKTNV-1" parent="WIyWlLk6GJQsqaUBKTNV-0" />
        <mxCell id="WIyWlLk6GJQsqaUBKTNV-2" value="" style="rounded=0;html=1;jettySize=auto;orthogonalLoop=1;fontSize=11;endArrow=block;endFill=0;endSize=8;strokeWidth=1;shadow=0;labelBackgroundColor=none;edgeStyle=orthogonalEdgeStyle;entryX=0.5;entryY=0;entryDx=0;entryDy=0;" parent="WIyWlLk6GJQsqaUBKTNV-1" source="WIyWlLk6GJQsqaUBKTNV-3" target="uQyaEm3ORcm0XCWfne_F-1" edge="1">
          <mxGeometry relative="1" as="geometry">
            <mxPoint x="171" y="360" as="targetPoint" />
          </mxGeometry>
        </mxCell>
        <mxCell id="uQyaEm3ORcm0XCWfne_F-12" style="edgeStyle=orthogonalEdgeStyle;rounded=0;orthogonalLoop=1;jettySize=auto;html=1;exitX=0.5;exitY=1;exitDx=0;exitDy=0;entryX=0.5;entryY=0;entryDx=0;entryDy=0;" edge="1" parent="WIyWlLk6GJQsqaUBKTNV-1" source="WIyWlLk6GJQsqaUBKTNV-7" target="uQyaEm3ORcm0XCWfne_F-8">
          <mxGeometry relative="1" as="geometry" />
        </mxCell>
        <mxCell id="WIyWlLk6GJQsqaUBKTNV-7" value="Retrieve CC Linked Online Account" style="rounded=1;whiteSpace=wrap;html=1;fontSize=12;glass=0;strokeWidth=1;shadow=0;" parent="WIyWlLk6GJQsqaUBKTNV-1" vertex="1">
          <mxGeometry x="111" y="730" width="120" height="40" as="geometry" />
        </mxCell>
        <mxCell id="uQyaEm3ORcm0XCWfne_F-6" style="edgeStyle=orthogonalEdgeStyle;rounded=0;orthogonalLoop=1;jettySize=auto;html=1;entryX=0;entryY=0.5;entryDx=0;entryDy=0;" edge="1" parent="WIyWlLk6GJQsqaUBKTNV-1" source="WIyWlLk6GJQsqaUBKTNV-10" target="WIyWlLk6GJQsqaUBKTNV-12">
          <mxGeometry relative="1" as="geometry" />
        </mxCell>
        <mxCell id="uQyaEm3ORcm0XCWfne_F-7" value="NO" style="edgeLabel;html=1;align=center;verticalAlign=middle;resizable=0;points=[];" vertex="1" connectable="0" parent="uQyaEm3ORcm0XCWfne_F-6">
          <mxGeometry x="-0.2985" y="3" relative="1" as="geometry">
            <mxPoint as="offset" />
          </mxGeometry>
        </mxCell>
        <mxCell id="uQyaEm3ORcm0XCWfne_F-10" style="edgeStyle=orthogonalEdgeStyle;rounded=0;orthogonalLoop=1;jettySize=auto;html=1;exitX=0.5;exitY=1;exitDx=0;exitDy=0;" edge="1" parent="WIyWlLk6GJQsqaUBKTNV-1" source="WIyWlLk6GJQsqaUBKTNV-10" target="WIyWlLk6GJQsqaUBKTNV-7">
          <mxGeometry relative="1" as="geometry" />
        </mxCell>
        <mxCell id="uQyaEm3ORcm0XCWfne_F-20" value="YES" style="edgeLabel;html=1;align=center;verticalAlign=middle;resizable=0;points=[];" vertex="1" connectable="0" parent="uQyaEm3ORcm0XCWfne_F-10">
          <mxGeometry relative="1" as="geometry">
            <mxPoint as="offset" />
          </mxGeometry>
        </mxCell>
        <mxCell id="WIyWlLk6GJQsqaUBKTNV-10" value="is DE" style="rhombus;whiteSpace=wrap;html=1;shadow=0;fontFamily=Helvetica;fontSize=12;align=center;strokeWidth=1;spacing=6;spacingTop=-4;" parent="WIyWlLk6GJQsqaUBKTNV-1" vertex="1">
          <mxGeometry x="121" y="580" width="100" height="80" as="geometry" />
        </mxCell>
        <mxCell id="uQyaEm3ORcm0XCWfne_F-18" style="edgeStyle=orthogonalEdgeStyle;rounded=0;orthogonalLoop=1;jettySize=auto;html=1;exitX=0.5;exitY=1;exitDx=0;exitDy=0;entryX=0.5;entryY=0;entryDx=0;entryDy=0;" edge="1" parent="WIyWlLk6GJQsqaUBKTNV-1" source="WIyWlLk6GJQsqaUBKTNV-11" target="WIyWlLk6GJQsqaUBKTNV-10">
          <mxGeometry relative="1" as="geometry" />
        </mxCell>
        <mxCell id="uQyaEm3ORcm0XCWfne_F-0" value="Till (Shop Owner on behalf of the CC user)" style="swimlane;horizontal=0;" vertex="1" parent="WIyWlLk6GJQsqaUBKTNV-1">
          <mxGeometry x="61" y="10" width="250" height="280" as="geometry" />
        </mxCell>
        <mxCell id="WIyWlLk6GJQsqaUBKTNV-3" value="Reset Activation Code" style="rounded=1;whiteSpace=wrap;html=1;fontSize=12;glass=0;strokeWidth=1;shadow=0;" parent="uQyaEm3ORcm0XCWfne_F-0" vertex="1">
          <mxGeometry x="50" y="190" width="120" height="40" as="geometry" />
        </mxCell>
        <mxCell id="uQyaEm3ORcm0XCWfne_F-19" value="&lt;ul&gt;&lt;li style=&quot;&quot;&gt;app-retail-till-app scopes&lt;br&gt;&lt;/li&gt;&lt;li&gt;CC User Access Token&lt;/li&gt;&lt;/ul&gt;" style="text;html=1;align=left;verticalAlign=middle;resizable=0;points=[];autosize=1;strokeColor=none;fillColor=none;" vertex="1" parent="uQyaEm3ORcm0XCWfne_F-0">
          <mxGeometry x="15" width="190" height="70" as="geometry" />
        </mxCell>
        <mxCell id="uQyaEm3ORcm0XCWfne_F-13" style="edgeStyle=orthogonalEdgeStyle;rounded=0;orthogonalLoop=1;jettySize=auto;html=1;exitX=1;exitY=0.5;exitDx=0;exitDy=0;startArrow=none;" edge="1" parent="WIyWlLk6GJQsqaUBKTNV-1" source="uQyaEm3ORcm0XCWfne_F-22" target="uQyaEm3ORcm0XCWfne_F-11">
          <mxGeometry relative="1" as="geometry" />
        </mxCell>
        <mxCell id="uQyaEm3ORcm0XCWfne_F-25" value="No" style="edgeLabel;html=1;align=center;verticalAlign=middle;resizable=0;points=[];" vertex="1" connectable="0" parent="uQyaEm3ORcm0XCWfne_F-13">
          <mxGeometry x="-0.0889" relative="1" as="geometry">
            <mxPoint as="offset" />
          </mxGeometry>
        </mxCell>
        <mxCell id="uQyaEm3ORcm0XCWfne_F-8" value="is 1DA" style="rhombus;whiteSpace=wrap;html=1;shadow=0;fontFamily=Helvetica;fontSize=12;align=center;strokeWidth=1;spacing=6;spacingTop=-4;" vertex="1" parent="WIyWlLk6GJQsqaUBKTNV-1">
          <mxGeometry x="121" y="830" width="100" height="80" as="geometry" />
        </mxCell>
        <mxCell id="uQyaEm3ORcm0XCWfne_F-15" value="Unauthorized" style="rounded=1;whiteSpace=wrap;html=1;fontSize=12;glass=0;strokeWidth=1;shadow=0;" vertex="1" parent="WIyWlLk6GJQsqaUBKTNV-1">
          <mxGeometry x="83" y="1000" width="176" height="40" as="geometry" />
        </mxCell>
        <mxCell id="uQyaEm3ORcm0XCWfne_F-16" style="edgeStyle=orthogonalEdgeStyle;rounded=0;orthogonalLoop=1;jettySize=auto;html=1;exitX=0.5;exitY=1;exitDx=0;exitDy=0;entryX=0.5;entryY=0;entryDx=0;entryDy=0;" edge="1" parent="WIyWlLk6GJQsqaUBKTNV-1" source="uQyaEm3ORcm0XCWfne_F-8" target="uQyaEm3ORcm0XCWfne_F-15">
          <mxGeometry relative="1" as="geometry" />
        </mxCell>
        <mxCell id="uQyaEm3ORcm0XCWfne_F-17" value="NO" style="edgeLabel;html=1;align=center;verticalAlign=middle;resizable=0;points=[];" vertex="1" connectable="0" parent="uQyaEm3ORcm0XCWfne_F-16">
          <mxGeometry x="-0.4" y="2" relative="1" as="geometry">
            <mxPoint as="offset" />
          </mxGeometry>
        </mxCell>
        <mxCell id="uQyaEm3ORcm0XCWfne_F-26" style="edgeStyle=orthogonalEdgeStyle;rounded=0;orthogonalLoop=1;jettySize=auto;html=1;exitX=0.5;exitY=1;exitDx=0;exitDy=0;entryX=1;entryY=0.5;entryDx=0;entryDy=0;" edge="1" parent="WIyWlLk6GJQsqaUBKTNV-1" source="uQyaEm3ORcm0XCWfne_F-22" target="uQyaEm3ORcm0XCWfne_F-15">
          <mxGeometry relative="1" as="geometry" />
        </mxCell>
        <mxCell id="uQyaEm3ORcm0XCWfne_F-27" value="YES" style="edgeLabel;html=1;align=center;verticalAlign=middle;resizable=0;points=[];" vertex="1" connectable="0" parent="uQyaEm3ORcm0XCWfne_F-26">
          <mxGeometry x="-0.6211" relative="1" as="geometry">
            <mxPoint as="offset" />
          </mxGeometry>
        </mxCell>
        <mxCell id="uQyaEm3ORcm0XCWfne_F-22" value="is password set?" style="rhombus;whiteSpace=wrap;html=1;shadow=0;fontFamily=Helvetica;fontSize=12;align=center;strokeWidth=1;spacing=6;spacingTop=-4;" vertex="1" parent="WIyWlLk6GJQsqaUBKTNV-1">
          <mxGeometry x="321" y="820" width="130" height="100" as="geometry" />
        </mxCell>
        <mxCell id="uQyaEm3ORcm0XCWfne_F-23" value="" style="edgeStyle=orthogonalEdgeStyle;rounded=0;orthogonalLoop=1;jettySize=auto;html=1;exitX=1;exitY=0.5;exitDx=0;exitDy=0;endArrow=none;" edge="1" parent="WIyWlLk6GJQsqaUBKTNV-1" source="uQyaEm3ORcm0XCWfne_F-8" target="uQyaEm3ORcm0XCWfne_F-22">
          <mxGeometry relative="1" as="geometry">
            <mxPoint x="221" y="870" as="sourcePoint" />
            <mxPoint x="541" y="870" as="targetPoint" />
          </mxGeometry>
        </mxCell>
        <mxCell id="uQyaEm3ORcm0XCWfne_F-47" value="YES" style="edgeLabel;html=1;align=center;verticalAlign=middle;resizable=0;points=[];" vertex="1" connectable="0" parent="uQyaEm3ORcm0XCWfne_F-23">
          <mxGeometry x="-0.1" y="3" relative="1" as="geometry">
            <mxPoint as="offset" />
          </mxGeometry>
        </mxCell>
        <mxCell id="uQyaEm3ORcm0XCWfne_F-32" value="" style="swimlane;startSize=0;fillColor=#D5E8D4;strokeColor=#82b366;" vertex="1" parent="WIyWlLk6GJQsqaUBKTNV-1">
          <mxGeometry x="563" y="780" width="214" height="200" as="geometry" />
        </mxCell>
        <mxCell id="uQyaEm3ORcm0XCWfne_F-11" value="reset 1DA /activation-code" style="rounded=1;whiteSpace=wrap;html=1;fontSize=12;glass=0;strokeWidth=1;shadow=0;" vertex="1" parent="uQyaEm3ORcm0XCWfne_F-32">
          <mxGeometry x="28" y="70" width="176" height="40" as="geometry" />
        </mxCell>
        <mxCell id="uQyaEm3ORcm0XCWfne_F-34" value="" style="swimlane;startSize=0;fillColor=#f8cecc;strokeColor=#b85450;" vertex="1" parent="WIyWlLk6GJQsqaUBKTNV-1">
          <mxGeometry x="61" y="540" width="470" height="520" as="geometry" />
        </mxCell>
        <mxCell id="WIyWlLk6GJQsqaUBKTNV-12" value="reset CC /activation-code" style="rounded=1;whiteSpace=wrap;html=1;fontSize=12;glass=0;strokeWidth=1;shadow=0;" parent="uQyaEm3ORcm0XCWfne_F-34" vertex="1">
          <mxGeometry x="260" y="60" width="176" height="40" as="geometry" />
        </mxCell>
        <mxCell id="uQyaEm3ORcm0XCWfne_F-46" value="* Get master uuid, find linked account with master uuid" style="text;html=1;strokeColor=none;fillColor=none;align=center;verticalAlign=middle;whiteSpace=wrap;rounded=0;shadow=1;" vertex="1" parent="uQyaEm3ORcm0XCWfne_F-34">
          <mxGeometry x="205" y="190" width="190" height="30" as="geometry" />
        </mxCell>
        <mxCell id="uQyaEm3ORcm0XCWfne_F-35" value="DONE" style="text;html=1;align=center;verticalAlign=middle;resizable=0;points=[];autosize=1;strokeColor=none;fillColor=none;" vertex="1" parent="WIyWlLk6GJQsqaUBKTNV-1">
          <mxGeometry x="611" y="795" width="60" height="30" as="geometry" />
        </mxCell>
        <mxCell id="uQyaEm3ORcm0XCWfne_F-36" value="NOT DONE (NEW LOGIC)" style="text;html=1;align=center;verticalAlign=middle;resizable=0;points=[];autosize=1;strokeColor=none;fillColor=none;" vertex="1" parent="WIyWlLk6GJQsqaUBKTNV-1">
          <mxGeometry x="226" y="535" width="170" height="30" as="geometry" />
        </mxCell>
        <mxCell id="uQyaEm3ORcm0XCWfne_F-41" value="" style="swimlane;startSize=0;fillColor=#d5e8d4;strokeColor=#82b366;" vertex="1" parent="WIyWlLk6GJQsqaUBKTNV-1">
          <mxGeometry x="61" y="320" width="220" height="200" as="geometry" />
        </mxCell>
        <mxCell id="WIyWlLk6GJQsqaUBKTNV-11" value="REGFS&amp;nbsp;/activation-code" style="rounded=1;whiteSpace=wrap;html=1;fontSize=12;glass=0;strokeWidth=1;shadow=0;" parent="uQyaEm3ORcm0XCWfne_F-41" vertex="1">
          <mxGeometry x="35" y="130" width="150" height="40" as="geometry" />
        </mxCell>
        <mxCell id="uQyaEm3ORcm0XCWfne_F-1" value="CDFES /activation-code" style="rounded=1;whiteSpace=wrap;html=1;fontSize=12;glass=0;strokeWidth=1;shadow=0;" vertex="1" parent="uQyaEm3ORcm0XCWfne_F-41">
          <mxGeometry x="30" y="60" width="160" height="40" as="geometry" />
        </mxCell>
        <mxCell id="uQyaEm3ORcm0XCWfne_F-5" value="" style="edgeStyle=orthogonalEdgeStyle;rounded=0;orthogonalLoop=1;jettySize=auto;html=1;" edge="1" parent="uQyaEm3ORcm0XCWfne_F-41" source="uQyaEm3ORcm0XCWfne_F-1" target="WIyWlLk6GJQsqaUBKTNV-11">
          <mxGeometry relative="1" as="geometry" />
        </mxCell>
        <mxCell id="uQyaEm3ORcm0XCWfne_F-42" value="DONE" style="text;html=1;align=center;verticalAlign=middle;resizable=0;points=[];autosize=1;strokeColor=none;fillColor=none;" vertex="1" parent="WIyWlLk6GJQsqaUBKTNV-1">
          <mxGeometry x="111" y="325" width="60" height="30" as="geometry" />
        </mxCell>
      </root>
    </mxGraphModel>
  </diagram>
</mxfile>
